<mxfile><diagram id="C_CAn81coQiGLjPqANE4" name="Page-1"><mxGraphModel dx="796" dy="611" grid="1" gridSize="10" guides="1" tooltips="1" connect="1" arrows="1" fold="1" page="1" pageScale="1" pageWidth="827" pageHeight="1169" math="0" shadow="0"><root><mxCell id="0"/><mxCell id="1" parent="0"/><mxCell id="4" value="" style="line;strokeWidth=1;fillColor=none;align=left;verticalAlign=middle;spacingTop=-1;spacingLeft=3;spacingRight=3;rotatable=0;labelPosition=right;points=[];portConstraint=eastwest;strokeColor=inherit;direction=south;" vertex="1" parent="1"><mxGeometry x="480" y="40" width="8" height="640" as="geometry"/></mxCell><mxCell id="5" value="" style="line;strokeWidth=1;fillColor=none;align=left;verticalAlign=middle;spacingTop=-1;spacingLeft=3;spacingRight=3;rotatable=0;labelPosition=right;points=[];portConstraint=eastwest;strokeColor=inherit;direction=south;" vertex="1" parent="1"><mxGeometry x="320" y="40" width="8" height="640" as="geometry"/></mxCell><mxCell id="6" value="" style="line;strokeWidth=1;fillColor=none;align=left;verticalAlign=middle;spacingTop=-1;spacingLeft=3;spacingRight=3;rotatable=0;labelPosition=right;points=[];portConstraint=eastwest;strokeColor=inherit;direction=south;" vertex="1" parent="1"><mxGeometry x="160" y="40" width="8" height="640" as="geometry"/></mxCell><mxCell id="8" value="" style="html=1;points=[];perimeter=orthogonalPerimeter;" vertex="1" parent="1"><mxGeometry x="159" y="170" width="10" height="80" as="geometry"/></mxCell><mxCell id="9" value="Verify Credentials" style="edgeStyle=none;html=1;exitX=1.2;exitY=0.454;exitDx=0;exitDy=0;exitPerimeter=0;" edge="1" parent="1"><mxGeometry relative="1" as="geometry"><mxPoint x="479" y="192" as="targetPoint"/><mxPoint x="331" y="192.32000000000005" as="sourcePoint"/></mxGeometry></mxCell><mxCell id="10" value="" style="html=1;points=[];perimeter=orthogonalPerimeter;" vertex="1" parent="1"><mxGeometry x="319" y="170" width="10" height="70" as="geometry"/></mxCell><mxCell id="11" style="edgeStyle=none;html=1;entryX=1.022;entryY=0.721;entryDx=0;entryDy=0;entryPerimeter=0;" edge="1" parent="1"><mxGeometry relative="1" as="geometry"><mxPoint x="480" y="219.99999999999994" as="sourcePoint"/><mxPoint x="330.2199999999999" y="219.99999999999994" as="targetPoint"/></mxGeometry></mxCell><mxCell id="12" value="Verified" style="edgeLabel;html=1;align=center;verticalAlign=middle;resizable=0;points=[];" vertex="1" connectable="0" parent="11"><mxGeometry x="-0.1551" y="-2" relative="1" as="geometry"><mxPoint x="-7" as="offset"/></mxGeometry></mxCell><mxCell id="13" value="" style="html=1;points=[];perimeter=orthogonalPerimeter;" vertex="1" parent="1"><mxGeometry x="479" y="170" width="10" height="80" as="geometry"/></mxCell><mxCell id="14" value="Log In Sucess" style="edgeStyle=none;html=1;exitX=0.065;exitY=0.758;exitDx=0;exitDy=0;exitPerimeter=0;entryX=1.097;entryY=0.746;entryDx=0;entryDy=0;entryPerimeter=0;" edge="1" parent="1"><mxGeometry relative="1" as="geometry"><mxPoint x="319.6500000000001" y="236.6400000000001" as="sourcePoint"/><mxPoint x="169.97000000000003" y="235.68000000000006" as="targetPoint"/></mxGeometry></mxCell><mxCell id="15" value="System" style="text;align=center;fontStyle=1;verticalAlign=middle;spacingLeft=3;spacingRight=3;strokeColor=none;rotatable=0;points=[[0,0.5],[1,0.5]];portConstraint=eastwest;" vertex="1" parent="1"><mxGeometry x="284" y="14" width="80" height="26" as="geometry"/></mxCell><mxCell id="16" value="User" style="text;align=center;fontStyle=1;verticalAlign=middle;spacingLeft=3;spacingRight=3;strokeColor=none;rotatable=0;points=[[0,0.5],[1,0.5]];portConstraint=eastwest;" vertex="1" parent="1"><mxGeometry x="124" y="14" width="80" height="26" as="geometry"/></mxCell><mxCell id="18" value="Database" style="text;align=center;fontStyle=1;verticalAlign=middle;spacingLeft=3;spacingRight=3;strokeColor=none;rotatable=0;points=[[0,0.5],[1,0.5]];portConstraint=eastwest;" vertex="1" parent="1"><mxGeometry x="444" y="14" width="80" height="26" as="geometry"/></mxCell><mxCell id="65" style="edgeStyle=none;html=1;entryX=1.1;entryY=0.613;entryDx=0;entryDy=0;entryPerimeter=0;" edge="1" parent="1" source="20" target="21"><mxGeometry relative="1" as="geometry"/></mxCell><mxCell id="66" value="Capital Saved" style="edgeLabel;html=1;align=center;verticalAlign=middle;resizable=0;points=[];" vertex="1" connectable="0" parent="65"><mxGeometry x="0.1758" relative="1" as="geometry"><mxPoint x="12" as="offset"/></mxGeometry></mxCell><mxCell id="20" value="" style="html=1;points=[];perimeter=orthogonalPerimeter;" vertex="1" parent="1"><mxGeometry x="478" y="470" width="10" height="60" as="geometry"/></mxCell><mxCell id="63" style="edgeStyle=none;html=1;entryX=0.14;entryY=0.13;entryDx=0;entryDy=0;entryPerimeter=0;" edge="1" parent="1" source="21" target="20"><mxGeometry relative="1" as="geometry"/></mxCell><mxCell id="64" value="Save Capital Details" style="edgeLabel;html=1;align=center;verticalAlign=middle;resizable=0;points=[];" vertex="1" connectable="0" parent="63"><mxGeometry x="-0.2417" y="-1" relative="1" as="geometry"><mxPoint x="8" as="offset"/></mxGeometry></mxCell><mxCell id="21" value="" style="html=1;points=[];perimeter=orthogonalPerimeter;" vertex="1" parent="1"><mxGeometry x="318" y="471" width="10" height="59" as="geometry"/></mxCell><mxCell id="26" value="" style="html=1;points=[];perimeter=orthogonalPerimeter;" vertex="1" parent="1"><mxGeometry x="159" y="271" width="10" height="399" as="geometry"/></mxCell><mxCell id="27" value="" style="html=1;points=[];perimeter=orthogonalPerimeter;" vertex="1" parent="1"><mxGeometry x="479" y="270" width="10" height="80" as="geometry"/></mxCell><mxCell id="28" value="" style="html=1;points=[];perimeter=orthogonalPerimeter;" vertex="1" parent="1"><mxGeometry x="319" y="271" width="10" height="80" as="geometry"/></mxCell><mxCell id="31" value="Create Company" style="edgeStyle=none;html=1;entryX=1.022;entryY=0.721;entryDx=0;entryDy=0;entryPerimeter=0;" edge="1" parent="1"><mxGeometry relative="1" as="geometry"><mxPoint x="167.9999999999999" y="281" as="sourcePoint"/><mxPoint x="317.78" y="281" as="targetPoint"/></mxGeometry></mxCell><mxCell id="32" value="Save Company Details" style="edgeStyle=none;html=1;entryX=1.022;entryY=0.721;entryDx=0;entryDy=0;entryPerimeter=0;" edge="1" parent="1"><mxGeometry relative="1" as="geometry"><mxPoint x="327.9999999999999" y="291" as="sourcePoint"/><mxPoint x="477.78" y="291" as="targetPoint"/></mxGeometry></mxCell><mxCell id="33" value="Company Saved" style="edgeStyle=none;html=1;entryX=1.022;entryY=0.721;entryDx=0;entryDy=0;entryPerimeter=0;" edge="1" parent="1"><mxGeometry relative="1" as="geometry"><mxPoint x="477.78" y="321" as="sourcePoint"/><mxPoint x="327.9999999999999" y="321" as="targetPoint"/></mxGeometry></mxCell><mxCell id="52" value="Log In" style="edgeStyle=none;html=1;exitX=1.2;exitY=0.454;exitDx=0;exitDy=0;exitPerimeter=0;" edge="1" parent="1"><mxGeometry relative="1" as="geometry"><mxPoint x="318" y="184" as="targetPoint"/><mxPoint x="170" y="184.32000000000005" as="sourcePoint"/></mxGeometry></mxCell><mxCell id="53" value="" style="html=1;points=[];perimeter=orthogonalPerimeter;" vertex="1" parent="1"><mxGeometry x="158" y="51" width="10" height="80" as="geometry"/></mxCell><mxCell id="54" value="" style="html=1;points=[];perimeter=orthogonalPerimeter;" vertex="1" parent="1"><mxGeometry x="478" y="50" width="10" height="80" as="geometry"/></mxCell><mxCell id="55" value="" style="html=1;points=[];perimeter=orthogonalPerimeter;" vertex="1" parent="1"><mxGeometry x="318" y="51" width="10" height="80" as="geometry"/></mxCell><mxCell id="56" style="edgeStyle=none;html=1;entryX=1.022;entryY=0.721;entryDx=0;entryDy=0;entryPerimeter=0;" edge="1" parent="1"><mxGeometry relative="1" as="geometry"><mxPoint x="319" y="111" as="sourcePoint"/><mxPoint x="169.2199999999999" y="111" as="targetPoint"/></mxGeometry></mxCell><mxCell id="57" value="Confirm Registration" style="edgeLabel;html=1;align=center;verticalAlign=middle;resizable=0;points=[];" vertex="1" connectable="0" parent="56"><mxGeometry x="-0.1903" y="3" relative="1" as="geometry"><mxPoint x="-9" as="offset"/></mxGeometry></mxCell><mxCell id="58" value="Register" style="edgeStyle=none;html=1;entryX=1.022;entryY=0.721;entryDx=0;entryDy=0;entryPerimeter=0;" edge="1" parent="1"><mxGeometry relative="1" as="geometry"><mxPoint x="166.9999999999999" y="61" as="sourcePoint"/><mxPoint x="316.78" y="61" as="targetPoint"/></mxGeometry></mxCell><mxCell id="59" value="Save Registration Details" style="edgeStyle=none;html=1;entryX=1.022;entryY=0.721;entryDx=0;entryDy=0;entryPerimeter=0;" edge="1" parent="1"><mxGeometry relative="1" as="geometry"><mxPoint x="327" y="71" as="sourcePoint"/><mxPoint x="476.78" y="71" as="targetPoint"/></mxGeometry></mxCell><mxCell id="60" value="Registration Sucessful" style="edgeStyle=none;html=1;entryX=1.022;entryY=0.721;entryDx=0;entryDy=0;entryPerimeter=0;" edge="1" parent="1"><mxGeometry relative="1" as="geometry"><mxPoint x="476.78" y="101" as="sourcePoint"/><mxPoint x="327" y="101" as="targetPoint"/></mxGeometry></mxCell><mxCell id="62" value="Saved to Compant_Table" style="text;html=1;strokeColor=none;fillColor=none;align=center;verticalAlign=middle;whiteSpace=wrap;rounded=0;" vertex="1" parent="1"><mxGeometry x="500" y="295" width="140" height="30" as="geometry"/></mxCell><mxCell id="77" style="edgeStyle=none;html=1;entryX=1.1;entryY=0.613;entryDx=0;entryDy=0;entryPerimeter=0;" edge="1" source="79" target="82" parent="1"><mxGeometry relative="1" as="geometry"/></mxCell><mxCell id="78" value="Document Path saved" style="edgeLabel;html=1;align=center;verticalAlign=middle;resizable=0;points=[];" vertex="1" connectable="0" parent="77"><mxGeometry x="0.1758" relative="1" as="geometry"><mxPoint x="12" as="offset"/></mxGeometry></mxCell><mxCell id="79" value="" style="html=1;points=[];perimeter=orthogonalPerimeter;" vertex="1" parent="1"><mxGeometry x="478" y="380" width="10" height="60" as="geometry"/></mxCell><mxCell id="80" style="edgeStyle=none;html=1;entryX=0.14;entryY=0.13;entryDx=0;entryDy=0;entryPerimeter=0;" edge="1" source="82" target="79" parent="1"><mxGeometry relative="1" as="geometry"/></mxCell><mxCell id="81" value="Save Document" style="edgeLabel;html=1;align=center;verticalAlign=middle;resizable=0;points=[];" vertex="1" connectable="0" parent="80"><mxGeometry x="-0.2417" y="-1" relative="1" as="geometry"><mxPoint as="offset"/></mxGeometry></mxCell><mxCell id="82" value="" style="html=1;points=[];perimeter=orthogonalPerimeter;" vertex="1" parent="1"><mxGeometry x="318" y="381" width="10" height="59" as="geometry"/></mxCell><mxCell id="83" value="Saved to Capital_Table" style="text;html=1;strokeColor=none;fillColor=none;align=center;verticalAlign=middle;whiteSpace=wrap;rounded=0;" vertex="1" parent="1"><mxGeometry x="500" y="480" width="140" height="30" as="geometry"/></mxCell><mxCell id="84" style="edgeStyle=none;html=1;entryX=1.1;entryY=0.613;entryDx=0;entryDy=0;entryPerimeter=0;" edge="1" source="86" target="89" parent="1"><mxGeometry relative="1" as="geometry"/></mxCell><mxCell id="85" value="WitnessSaved" style="edgeLabel;html=1;align=center;verticalAlign=middle;resizable=0;points=[];" vertex="1" connectable="0" parent="84"><mxGeometry x="0.1758" relative="1" as="geometry"><mxPoint x="12" as="offset"/></mxGeometry></mxCell><mxCell id="86" value="" style="html=1;points=[];perimeter=orthogonalPerimeter;" vertex="1" parent="1"><mxGeometry x="478" y="550" width="10" height="60" as="geometry"/></mxCell><mxCell id="87" style="edgeStyle=none;html=1;entryX=0.14;entryY=0.13;entryDx=0;entryDy=0;entryPerimeter=0;" edge="1" source="89" target="86" parent="1"><mxGeometry relative="1" as="geometry"/></mxCell><mxCell id="88" value="Save WitnessDetails" style="edgeLabel;html=1;align=center;verticalAlign=middle;resizable=0;points=[];" vertex="1" connectable="0" parent="87"><mxGeometry x="-0.2417" y="-1" relative="1" as="geometry"><mxPoint x="8" as="offset"/></mxGeometry></mxCell><mxCell id="89" value="" style="html=1;points=[];perimeter=orthogonalPerimeter;" vertex="1" parent="1"><mxGeometry x="318" y="551" width="10" height="59" as="geometry"/></mxCell><mxCell id="90" value="Saved to Witness_Table" style="text;html=1;strokeColor=none;fillColor=none;align=center;verticalAlign=middle;whiteSpace=wrap;rounded=0;" vertex="1" parent="1"><mxGeometry x="500" y="565" width="140" height="30" as="geometry"/></mxCell><mxCell id="92" style="edgeStyle=none;html=1;" edge="1" parent="1" source="91"><mxGeometry relative="1" as="geometry"><mxPoint x="170" y="650" as="targetPoint"/></mxGeometry></mxCell><mxCell id="93" value="Company Registered" style="edgeLabel;html=1;align=center;verticalAlign=middle;resizable=0;points=[];" vertex="1" connectable="0" parent="92"><mxGeometry x="0.1979" y="-4" relative="1" as="geometry"><mxPoint x="11" as="offset"/></mxGeometry></mxCell><mxCell id="91" value="" style="html=1;points=[];perimeter=orthogonalPerimeter;" vertex="1" parent="1"><mxGeometry x="319" y="630" width="10" height="40" as="geometry"/></mxCell></root></mxGraphModel></diagram></mxfile>